**ABCDEFGHIJKLMNOPQRSTUVWXYZabcdefghijklmnopqrstuvwxyz**************************
**PARASOLID !"#$%&'()*+,-./:;<=>?@[\]^_`{|}~0123456789**************************
**PART1;
MC=AMD64;
MC_MODEL=Intel64 Family 6 Model 165 Stepping 3, GenuineIntel;
MC_ID=unknown;
OS=Windows_NT;
OS_RELEASE=unknown;
FRU=Parasolid Version 31.1, build 278,  7-15-2019;
APPL=SOLIDWORKS 2020-2019269;
SITE=;
USER=unknown;
FORMAT=text;
GUISE=transmit;
KEY=makeProjectedPlanarWire;
FILE=makeProjectedPlanarWire.x_t;
DATE=Thu Jun 10 15:58:08 2021;
**PART2;
SCH=SCH_3101278_31100;
USFLD_SIZE=0;
**PART3;
**END_OF_HEADER*****************************************************************
T51 : TRANSMIT FILE created by modeller version 310127823 SCH_3101278_31100_1300
6222 0 12 34 CCCCCCI4 mesh1006 0 I8 polyline1008 0 CCCCCCCDI5 owner1040 0 CCCCCC
I13 boundary_mesh1006 0 I17 boundary_polyline1008 0 CCCA16 index_map_offset0 0 1
 dA9 index_map82 0 A17 node_id_index_map82 0 A20 schema_embedding_map82 0 A5 chi
ld12 0 A14 lowest_node_id0 0 1 dA16 mesh_offset_data206 0 Z1 893 0 0 0 0 0 0 0 0
 1e3 1e-8 0 2 0 1 0 3 1 3 4 5 6 0 0 7 8 9 0 0 0 0 0 0 0 13 255 3 148 0 1 0 10 0
 0 7 10 50 255 4 3 0 10 0 0 0 +0 0 .004 0 0 1 1 0 0 30 255 5 101 0 8 11 0 0 +.01
066666666666666 486939923081211e-32 .004 456506177888635e-30 -1 0 29 255 6 146 0
 9 12 0 .01066666666666668 -.00541578947368421 .004 19 8 CCCCCCCA5 owner12 0 Z7
 147 0 1 0 0 3 V0 16 255 8 99 0 ?13 0 14 5 0 0 1 18 255 9 144 0 15 0 16 6 ?1 17
 255 15 0 0 0 0 9 17 18 0 13 -18 16 141 0 19 9 20 12 ?1 17 19 0 21 13 22 16 23 1
4 0 24 +18 20 138 0 22 16 25 26 ?1 29 12 143 0 16 26 6 .01066666666666666 .00218
4210526315775 .004 29 26 140 0 20 27 12 .00916666666666666 .003684210526315785 .
004 29 27 137 0 25 28 26 -.00783333333333332 .003684210526315785 .004 18 25 135
 0 29 20 30 27 ?1 29 28 134 0 30 31 27 -.00933333333333333 .002184210526315775 .
004 18 30 132 0 32 25 33 28 ?1 29 31 131 0 33 34 28 -.00933333333333333 -.005415
7894736842 .004 18 33 129 0 35 30 36 31 ?1 29 34 128 0 36 37 31 -.00783333333333
332 -.00691578947368421 .004 18 36 126 0 38 33 39 34 ?1 29 37 125 0 39 40 34 .00
916666666666666 -.00691578947368421 .004 18 39 123 0 17 36 41 37 ?1 29 40 122 0
 41 42 37 .01271666666666666 -.00841578947368421 .004 18 41 120 0 43 39 44 40 ?1
 29 42 119 0 44 45 40 -.01138333333333332 -.00841578947368421 .004 18 44 117 0 4
6 41 47 42 ?1 29 45 113 0 47 48 42 -.01138333333333332 .00518421052631579 .004 1
8 47 111 0 49 44 50 45 ?1 29 48 110 0 50 0 45 .01271666666666666 .00518421052631
579 .004 18 50 108 0 51 47 0 48 ?1 17 51 0 52 49 53 50 43 54 0 55 -15 255 52 7 0
 51 10 21 17 49 0 52 46 51 47 55 56 0 57 +17 53 0 52 51 46 41 58 59 0 0 +17 43 0
 0 0 0 41 51 54 0 53 +16 54 9 0 ?43 56 0 60 0 0 1 17 55 0 0 0 0 50 49 56 0 0 -16
 56 25 0 ?49 61 54 62 0 0 1 16 61 33 0 ?46 59 56 63 0 0 1 30 62 27 0 56 60 63 0
 +0 .00518421052631579 .004 -1 0 0 30 60 11 0 54 0 62 0 +.01271666666666666 0 .0
04 0 -1 0 30 63 35 0 61 62 64 0 +-.01138333333333332 0 .004 0 -1 0 30 64 51 0 59
 63 65 0 +0 -.00841578947368421 .004 1 0 0 16 59 49 0 ?53 18 61 64 0 0 1 31 255
 65 59 0 18 64 66 0 -.00916666666666668 -.00541578947368421 .004 0 0 1 1 0 0 .00
15 16 18 57 0 ?17 67 59 65 0 0 1 30 66 65 0 67 65 68 0 +0 -.00691578947368421 .0
04 -1 0 0 16 67 63 0 ?38 69 18 66 0 0 1 31 68 71 0 69 66 70 0 --.007833333333333
33 -.00541578947368421 .004 0 0 1 1 0 0 .0015 16 69 69 0 ?35 71 67 68 0 0 1 30 7
0 77 0 71 68 72 0 +-.00933333333333333 -2130362163480295e-33 .004 -2282530889443
175e-31 1 0 16 71 75 0 ?32 73 69 70 0 0 1 31 72 83 0 73 70 74 0 --.0078333333333
3333 .002184210526315785 .004 0 0 1 1 0 0 .0015 16 73 81 0 ?29 75 71 72 0 0 1 30
 74 89 0 75 72 11 0 +0 .003684210526315785 .004 1 0 0 16 75 87 0 ?22 14 73 74 0
 0 1 31 11 95 0 14 74 5 0 -.00916666666666667 .002184210526315785 .004 0 0 1 1 0
 0 .0015 16 14 93 0 ?19 8 75 11 0 0 1 17 22 0 21 19 29 20 76 75 0 23 +15 21 8 0
 17 10 0 17 29 0 21 22 32 25 77 73 0 76 +17 76 0 0 0 0 25 22 75 0 0 -17 23 0 0 0
 0 20 19 14 0 0 -17 32 0 21 29 35 30 78 71 0 77 +17 77 0 0 0 0 30 29 73 0 0 -17
 35 0 21 32 38 33 79 69 0 78 +17 78 0 0 0 0 33 32 71 0 0 -17 38 0 21 35 17 36 80
 67 0 79 +17 79 0 0 0 0 36 35 69 0 0 -17 17 0 21 38 13 39 15 18 0 80 +17 80 0 0
 0 0 39 38 67 0 0 -17 13 0 21 17 19 9 24 8 0 0 +17 24 0 0 0 0 16 13 8 0 0 -14 25
5 10 1 0 ?0 0 52 3 4 +0 0 0 0 3 17 46 0 52 53 49 44 57 61 0 58 +17 57 0 0 0 0 47
 46 61 0 0 -17 58 0 0 0 0 44 53 59 0 0 -1 0 
